<svg width="145" height="134" viewBox="0 0 145 134" fill="none" xmlns="http://www.w3.org/2000/svg">
<path d="M83.598 130.84C134.196 118.692 157.769 70.7231 136.471 23.245C115.173 -24.2332 57.333 -52.6566 6.73458 -40.509C-43.8639 -28.3614 -67.4363 19.6076 -46.1386 67.0857C-24.8409 114.564 32.9995 142.987 83.598 130.84Z" fill="#D9E2EC"/>
<path d="M76.36 52.702C70.7555 40.2082 60.8447 37.8425 44.0659 39.8939C32.0121 41.2058 28.4485 38.8983 26.2064 33.9C23.9643 28.9018 26.3282 24.7764 33.9366 22.9498C40.7845 21.3058 45.55 22.5342 49.8538 27.4323C50.715 28.4118 52.1764 28.8515 53.3177 28.5775L59.4041 27.1162C60.9262 26.7508 61.5871 25.4059 60.9468 23.9786C60.8402 23.7409 60.7117 23.508 60.557 23.2871C57.0846 18.3287 51.6122 14.7659 45.654 13.4266C40.7806 12.3311 35.6424 9.84276 33.7413 5.60458L33.2584 4.5282C32.7174 3.32209 31.4767 2.56619 29.8619 2.4201C29.2399 2.36382 28.6448 2.47182 28.0709 2.60961L23.2274 3.77244C21.9418 4.08109 21.2705 5.08854 21.3462 6.5251C21.3753 7.07789 21.5862 7.63077 21.8277 8.16907L21.9387 8.41665C23.7756 12.5116 21.9116 16.6034 18.6799 19.2338C12.9252 23.9177 11.292 30.7128 14.3533 37.5372C19.6376 49.3174 29.3275 52.1309 46.1068 50.0803C57.5599 49.3075 61.9446 50.6273 64.5069 56.3392C67.0691 62.0511 63.5037 67.2564 56.276 68.9916C46.384 71.3665 41.1984 68.2612 37.6551 63.1805C36.635 61.8444 35.1731 61.4039 34.0318 61.6779L27.5638 63.2307C26.0427 63.5959 25.3818 64.9408 26.0224 66.369C26.1291 66.6068 26.2557 66.841 26.4042 67.0648C30.7364 73.5935 37.1266 77.9624 46.0063 78.9788C50.6763 79.5134 55.3712 82.0063 57.1833 86.0459L57.875 87.5879C58.4157 88.7933 59.6564 89.5491 61.2712 89.6952C61.8932 89.7514 62.4882 89.6434 63.0622 89.5056L67.9057 88.3428C69.1911 88.0342 69.8623 87.0271 69.7872 85.5914C69.7582 85.0384 69.5472 84.4852 69.3056 83.9467L68.9304 83.1101C67.1388 79.1162 68.8558 75.1002 71.9589 72.4888C77.9069 67.4833 79.7179 60.1877 76.36 52.702Z" fill="#050F33"/>
<path d="M49.769 101.31C49.0562 100.963 48.2705 100.841 47.5025 100.764C13.8476 97.3781 -14.6588 70.2548 -15.9412 40.46C-16.9602 24.097 -9.52988 9.65998 3.66576 0.560674C4.86767 -0.518404 5.14785 -1.77193 4.34693 -3.55738L2.10521 -8.55477C1.54087 -9.81283 0.510722 -10.652 -0.876322 -10.8279C-1.26437 -10.8771 -1.58952 -10.8447 -1.93447 -10.7331C-2.61154 -10.5142 -3.12903 -9.9528 -3.70186 -9.58493C-34.2233 10.0162 -37.5155 50.3449 -11.1417 81.2226C4.51645 99.3869 27.4576 110.764 51.3849 112.261C51.8636 112.291 52.3506 112.375 52.8243 112.368C53.6323 112.356 54.2599 112.035 54.6109 111.52C55.1666 110.704 55.0746 109.528 54.6287 108.534L52.3866 103.536C52.0237 102.727 50.9182 101.87 49.769 101.31ZM39.7229 -20.1437C39.2607 -20.1747 38.7916 -20.2562 38.3337 -20.253C37.514 -20.2473 36.8773 -19.9249 36.5226 -19.4049C35.9663 -18.5893 36.0586 -17.4123 36.5048 -16.4176L38.7465 -11.4203C39.231 -10.3402 40.368 -9.41732 41.5258 -8.84107C42.2357 -8.48772 43.0228 -8.36837 43.7909 -8.29111C77.4458 -4.90562 105.952 22.2177 107.235 52.0125C108.254 68.3755 100.823 82.8125 87.6276 91.9118C86.4257 92.9909 86.1455 94.2444 86.9464 96.0299L89.1881 101.027C89.7525 102.285 90.7826 103.124 92.1697 103.3C92.5577 103.35 92.8829 103.317 93.2278 103.206C93.9049 102.987 94.4224 102.425 94.9952 102.057C125.517 82.4563 128.809 42.1276 102.435 11.2499C86.6151 -7.27179 63.293 -18.564 39.7229 -20.1437Z" fill="#050F33"/>
</svg>
