<svg width="32" height="34" viewBox="0 0 32 34" fill="none" xmlns="http://www.w3.org/2000/svg">
<g clip-path="url(#clip0_1657_1933)">
<path d="M31.3509 0.85911V7.24208C31.3509 7.77018 31.2048 8.28802 30.9289 8.7383C30.653 9.18859 30.2579 9.5538 29.7874 9.79356L20.6238 14.4555L15.6641 16.9812V7.43967L30.0909 0.0945326C30.2222 0.0252608 30.3692 -0.00881931 30.5175 -0.00437568C30.6659 6.79502e-05 30.8106 0.0428715 30.9375 0.119876C31.0644 0.19688 31.1692 0.305452 31.2416 0.435005C31.3141 0.564558 31.3517 0.710678 31.3509 0.85911V0.85911Z" fill="#2525F6"/>
<path d="M27.0557 17.7228L20.6355 14.4554L15.6758 16.9811L20.6155 19.4954L23.1154 20.7697L24.5701 21.5114C25.1034 21.7579 25.5579 22.1475 25.8829 22.6369C26.208 23.1262 26.391 23.6962 26.4114 24.2833V26.9551L23.1154 25.2799L20.6155 24.0056L15.6758 21.4913V26.5169L30.1026 33.865C30.2335 33.9315 30.3793 33.9634 30.526 33.9576C30.6727 33.9518 30.8155 33.9085 30.9407 33.8318C31.0659 33.7552 31.1694 33.6477 31.2413 33.5196C31.3131 33.3915 31.351 33.2472 31.3511 33.1004V24.2833C31.3511 21.5801 29.7132 19.0773 27.0557 17.7228Z" fill="#0D1942"/>
<path d="M8.23573 8.68246L10.7357 9.95677L15.6754 12.471V7.43965L1.24854 0.0945154C1.11766 0.027949 0.971897 -0.00396737 0.825174 0.0018293C0.678451 0.00762596 0.53566 0.0509344 0.410437 0.127619C0.285215 0.204303 0.181738 0.311808 0.109885 0.439864C0.0380315 0.56792 0.000196851 0.712256 0 0.859093V9.67612C0 12.3822 1.63512 14.8822 4.29541 16.2367L10.7156 19.5069L15.6754 16.9812L10.7357 14.4669L8.23573 13.1926L6.75525 12.4366C6.22423 12.1905 5.77228 11.8014 5.45008 11.3128C5.12788 10.8241 4.94818 10.2554 4.93114 9.67041V6.9958L8.23573 8.68246Z" fill="#0D1942"/>
<path d="M15.6754 16.9812V26.517L1.24854 33.865C1.11766 33.9316 0.971897 33.9635 0.825174 33.9577C0.678451 33.9519 0.53566 33.9086 0.410437 33.8319C0.285215 33.7552 0.181738 33.6477 0.109885 33.5197C0.0380315 33.3916 0.000196851 33.2473 0 33.1004V26.7146C0.000269794 26.1862 0.14674 25.6682 0.423196 25.2178C0.699652 24.7675 1.09532 24.4025 1.5664 24.1631L10.7299 19.5069L15.6754 16.9812Z" fill="#2525F6"/>
</g>
<defs>
<clipPath id="clip0_1657_1933">
<rect width="31.3507" height="33.9595" fill="white"/>
</clipPath>
</defs>
</svg>
