<svg width="120" height="34" viewBox="0 0 120 34" fill="none" xmlns="http://www.w3.org/2000/svg">
<g clip-path="url(#clip0_1657_1932)">
<path d="M31.3509 0.85911V7.24208C31.3509 7.77018 31.2048 8.28802 30.9289 8.7383C30.653 9.18859 30.2579 9.5538 29.7874 9.79356L20.6238 14.4555L15.6641 16.9812V7.43967L30.0909 0.0945326C30.2222 0.0252608 30.3692 -0.00881931 30.5175 -0.00437568C30.6659 6.79502e-05 30.8106 0.0428715 30.9375 0.119876C31.0644 0.19688 31.1692 0.305452 31.2416 0.435005C31.3141 0.564558 31.3517 0.710678 31.3509 0.85911Z" fill="#2525F6"/>
<path d="M27.0557 17.7228L20.6355 14.4554L15.6758 16.9811L20.6155 19.4954L23.1154 20.7697L24.5701 21.5114C25.1034 21.7579 25.5579 22.1475 25.8829 22.6369C26.208 23.1262 26.391 23.6962 26.4114 24.2833V26.9551L23.1154 25.2799L20.6155 24.0056L15.6758 21.4913V26.5169L30.1026 33.865C30.2335 33.9315 30.3793 33.9634 30.526 33.9576C30.6727 33.9518 30.8155 33.9085 30.9407 33.8318C31.0659 33.7552 31.1694 33.6477 31.2413 33.5196C31.3131 33.3915 31.351 33.2472 31.3511 33.1004V24.2833C31.3511 21.5801 29.7132 19.0773 27.0557 17.7228Z" fill="#0D1942"/>
<path d="M8.23573 8.68246L10.7357 9.95677L15.6754 12.471V7.43965L1.24854 0.0945154C1.11766 0.027949 0.971897 -0.00396737 0.825174 0.0018293C0.678451 0.00762596 0.53566 0.0509344 0.410437 0.127619C0.285215 0.204303 0.181738 0.311808 0.109885 0.439864C0.0380315 0.56792 0.000196851 0.712256 0 0.859093V9.67612C0 12.3822 1.63512 14.8822 4.29541 16.2367L10.7156 19.5069L15.6754 16.9812L10.7357 14.4669L8.23573 13.1926L6.75525 12.4366C6.22423 12.1905 5.77228 11.8014 5.45008 11.3128C5.12788 10.8241 4.94818 10.2554 4.93114 9.67041V6.9958L8.23573 8.68246Z" fill="#0D1942"/>
<path d="M15.6754 16.9812V26.517L1.24854 33.865C1.11766 33.9316 0.971897 33.9635 0.825174 33.9577C0.678451 33.9519 0.53566 33.9086 0.410437 33.8319C0.285215 33.7552 0.181738 33.6477 0.109885 33.5197C0.0380315 33.3916 0.000196851 33.2473 0 33.1004V26.7146C0.000269794 26.1862 0.14674 25.6682 0.423196 25.2178C0.699652 24.7675 1.09532 24.4025 1.5664 24.1631L10.7299 19.5069L15.6754 16.9812Z" fill="#2525F6"/>
</g>
<path d="M52.1744 28.9979C50.1376 28.9979 48.3606 28.6654 46.8434 28.0003C45.3262 27.3145 44.0688 26.4 43.0712 25.2569C42.0944 24.1138 41.3669 22.846 40.8889 21.4535C40.4109 20.061 40.1719 18.6685 40.1719 17.276V16.5901C40.1719 15.156 40.4109 13.7531 40.8889 12.3814C41.3669 11.0097 42.084 9.76269 43.04 8.64037C44.0168 7.51806 45.2223 6.62436 46.6564 5.95928C48.1112 5.29421 49.7843 4.96167 51.6756 4.96167C53.7332 4.96167 55.5518 5.34617 57.1313 6.11516C58.7109 6.86337 59.9787 7.91294 60.9347 9.26388C61.8908 10.594 62.4415 12.1424 62.587 13.909H57.4742C57.3495 13.0777 57.017 12.3502 56.4766 11.7267C55.957 11.1032 55.2816 10.6148 54.4502 10.2615C53.6397 9.90817 52.7148 9.73151 51.6756 9.73151C50.678 9.73151 49.7843 9.90817 48.9945 10.2615C48.2255 10.6148 47.5605 11.1136 46.9993 11.7579C46.4589 12.4022 46.0432 13.1712 45.7523 14.0649C45.4821 14.9378 45.347 15.9042 45.347 16.9642C45.347 18.0657 45.4925 19.0737 45.7835 19.9882C46.0952 20.8819 46.5421 21.6613 47.124 22.3264C47.7059 22.9707 48.423 23.4695 49.2751 23.8228C50.148 24.1761 51.1145 24.3528 52.1744 24.3528C53.5877 24.3528 54.8139 24.0618 55.8531 23.4799C56.8923 22.8979 57.6405 22.1289 58.0977 21.1729L57.4742 24.6645V19.24H62.1817V24.1034C61.2049 25.6829 59.854 26.8988 58.1289 27.7509C56.4247 28.5823 54.4398 28.9979 52.1744 28.9979ZM51.5197 20.2376V16.5589H64.0523V20.2376H51.5197Z" fill="#0D1942"/>
<path d="M74.9016 28.9979C73.4467 28.9979 72.1581 28.7485 71.0358 28.2497C69.9343 27.7509 69.0094 27.0858 68.2612 26.2545C67.5338 25.4024 66.9726 24.4567 66.5777 23.4175C66.2036 22.3576 66.0166 21.2768 66.0166 20.1753V19.5518C66.0166 18.4087 66.2036 17.3175 66.5777 16.2783C66.9726 15.2184 67.5338 14.2727 68.2612 13.4414C68.9886 12.61 69.8927 11.9554 70.9734 11.4773C72.075 10.9785 73.322 10.7291 74.7145 10.7291C76.5435 10.7291 78.0814 11.1448 79.3285 11.9761C80.5963 12.7867 81.5627 13.8571 82.2278 15.1872C82.8929 16.4966 83.2254 17.9306 83.2254 19.4894V21.1729H68.1053V18.3359H80.2014L78.5802 19.6453C78.5802 18.6269 78.4348 17.754 78.1438 17.0266C77.8528 16.2991 77.4164 15.7484 76.8344 15.3743C76.2733 14.9794 75.5666 14.7819 74.7145 14.7819C73.8416 14.7819 73.1038 14.9794 72.501 15.3743C71.8983 15.7692 71.4411 16.3511 71.1293 17.1201C70.8176 17.8683 70.6617 18.7932 70.6617 19.8947C70.6617 20.9131 70.8072 21.8068 71.0981 22.5758C71.3891 23.324 71.8464 23.9059 72.4699 24.3216C73.0934 24.7373 73.9039 24.9451 74.9016 24.9451C75.816 24.9451 76.5642 24.7685 77.1462 24.4151C77.7281 24.0618 78.123 23.6254 78.3308 23.1058H82.9136C82.6642 24.2489 82.1758 25.2673 81.4484 26.161C80.721 27.0547 79.8065 27.7509 78.7049 28.2497C77.6034 28.7485 76.3356 28.9979 74.9016 28.9979Z" fill="#0D1942"/>
<path d="M94.2934 28.6238C92.5684 28.6238 91.1759 28.416 90.1159 28.0003C89.0559 27.5639 88.2765 26.8468 87.7777 25.8492C87.2997 24.8308 87.0607 23.4591 87.0607 21.7341V6.70749H91.7058V21.9211C91.7058 22.7317 91.9137 23.3552 92.3293 23.7916C92.7658 24.2073 93.3789 24.4151 94.1687 24.4151H96.6939V28.6238H94.2934ZM84.4731 14.969V11.3215H96.6939V14.969H84.4731Z" fill="#0D1942"/>
<path d="M98.053 28.4056L105.816 16.2783L105.878 16.8083L98.7076 5.64753H104.319L108.746 12.7555H109.463L113.828 5.64753H119.283L112.082 16.8707L111.988 16.3719L120 28.4056H114.358L109.183 20.3623H108.434L103.509 28.4056H98.053Z" fill="#0D1942"/>
<defs>
<clipPath id="clip0_1657_1932">
<rect width="31.3507" height="33.9595" fill="white"/>
</clipPath>
</defs>
</svg>
