<svg width="68" height="20" viewBox="0 0 68 20" fill="none" xmlns="http://www.w3.org/2000/svg">
<g clip-path="url(#clip0_1709_1499)">
<path d="M17.9983 0.564788V4.13719C17.9983 4.43276 17.9166 4.72258 17.7621 4.9746C17.6077 5.22661 17.3866 5.43101 17.1232 5.5652L11.9946 8.17438L9.21875 9.58796V4.24778L17.2931 0.136871C17.3666 0.0981012 17.4489 0.0790273 17.5319 0.0815143C17.6149 0.0840013 17.6959 0.107958 17.7669 0.151055C17.838 0.194153 17.8966 0.254918 17.9372 0.327426C17.9777 0.399934 17.9988 0.481714 17.9983 0.564788Z" fill="#2525F6"/>
<path d="M15.5937 10.0032L12.0005 8.17456L9.22461 9.58814L11.9893 10.9953L13.3884 11.7085L14.2026 12.1236C14.501 12.2616 14.7554 12.4796 14.9373 12.7535C15.1193 13.0274 15.2216 13.3464 15.2331 13.675V15.1703L13.3884 14.2327L11.9893 13.5196L9.22461 12.1124V14.9251L17.299 19.0376C17.3722 19.0749 17.4538 19.0927 17.5359 19.0895C17.618 19.0863 17.698 19.062 17.768 19.0191C17.8381 18.9762 17.896 18.916 17.9363 18.8443C17.9765 18.7727 17.9976 18.6919 17.9978 18.6097V13.675C17.9978 12.1621 17.081 10.7613 15.5937 10.0032Z" fill="#F1F3FF"/>
<path d="M5.06052 4.94345L6.45968 5.65665L9.22433 7.06381V4.24787L1.14995 0.136966C1.0767 0.0997102 0.995121 0.0818473 0.913003 0.0850916C0.830886 0.0883358 0.750969 0.112575 0.680884 0.155493C0.6108 0.198412 0.552886 0.25858 0.512672 0.33025C0.472457 0.40192 0.451282 0.482701 0.451172 0.564883V5.49958C0.451172 7.01412 1.36631 8.41328 2.85521 9.17136L6.44846 11.0016L9.22433 9.58805L6.45968 8.18089L5.06052 7.46769L4.23193 7.04458C3.93473 6.90684 3.68178 6.68902 3.50146 6.41556C3.32113 6.1421 3.22056 5.82381 3.21102 5.49638V3.99946L5.06052 4.94345Z" fill="#F1F3FF"/>
<path d="M9.22433 9.58813V14.9251L1.14995 19.0376C1.0767 19.0749 0.995121 19.0927 0.913003 19.0895C0.830886 19.0862 0.750969 19.062 0.680884 19.0191C0.6108 18.9762 0.552886 18.916 0.512672 18.8443C0.472457 18.7727 0.451282 18.6919 0.451172 18.6097V15.0357C0.451323 14.74 0.533299 14.45 0.688025 14.198C0.842751 13.946 1.0642 13.7417 1.32785 13.6077L6.45647 11.0017L9.22433 9.58813Z" fill="#2525F6"/>
</g>
<path d="M29.6531 16.3136C28.5132 16.3136 27.5186 16.1275 26.6695 15.7553C25.8203 15.3714 25.1166 14.8596 24.5582 14.2199C24.0115 13.5801 23.6044 12.8705 23.3369 12.0912C23.0693 11.3118 22.9355 10.5325 22.9355 9.75312V9.36926C22.9355 8.56664 23.0693 7.78147 23.3369 7.01375C23.6044 6.24603 24.0057 5.5481 24.5408 4.91997C25.0875 4.29184 25.7622 3.79165 26.5648 3.41943C27.379 3.0472 28.3154 2.86108 29.3739 2.86108C30.5255 2.86108 31.5433 3.07628 32.4274 3.50667C33.3114 3.92542 34.021 4.51285 34.556 5.26893C35.0911 6.01339 35.3994 6.87998 35.4808 7.86871H32.6193C32.5495 7.40343 32.3634 6.9963 32.0609 6.64734C31.7701 6.29838 31.3921 6.02502 30.9268 5.82728C30.4732 5.62953 29.9555 5.53066 29.3739 5.53066C28.8156 5.53066 28.3154 5.62953 27.8734 5.82728C27.443 6.02502 27.0708 6.30419 26.7567 6.66479C26.4543 7.02538 26.2216 7.45577 26.0588 7.95595C25.9076 8.4445 25.8319 8.9854 25.8319 9.57864C25.8319 10.1951 25.9134 10.7593 26.0762 11.2711C26.2507 11.7713 26.5008 12.2075 26.8265 12.5797C27.1522 12.9403 27.5535 13.2195 28.0304 13.4172C28.519 13.615 29.0599 13.7139 29.6531 13.7139C30.4441 13.7139 31.1304 13.551 31.712 13.2253C32.2936 12.8996 32.7123 12.4692 32.9683 11.9341L32.6193 13.8883V10.8524H35.254V13.5743C34.7073 14.4583 33.9512 15.1388 32.9857 15.6157C32.0319 16.081 30.921 16.3136 29.6531 16.3136ZM29.2867 11.4107V9.35181H36.3009V11.4107H29.2867Z" fill="#F1F3FF"/>
<path d="M42.373 16.3136C41.5587 16.3136 40.8375 16.174 40.2094 15.8949C39.5929 15.6157 39.0753 15.2435 38.6565 14.7782C38.2494 14.3013 37.9353 13.772 37.7143 13.1904C37.5049 12.5972 37.4002 11.9923 37.4002 11.3758V11.0268C37.4002 10.3871 37.5049 9.77638 37.7143 9.19477C37.9353 8.60154 38.2494 8.07227 38.6565 7.60699C39.0636 7.14171 39.5696 6.77529 40.1745 6.50775C40.791 6.22858 41.4889 6.089 42.2683 6.089C43.2919 6.089 44.1527 6.32164 44.8506 6.78693C45.5602 7.24058 46.1011 7.83963 46.4733 8.58409C46.8455 9.31691 47.0316 10.1195 47.0316 10.9919V11.9341H38.5693V10.3464H45.3392L44.4318 11.0792C44.4318 10.5092 44.3504 10.0207 44.1876 9.61353C44.0247 9.20641 43.7804 8.89816 43.4548 8.68878C43.1407 8.46777 42.7452 8.35726 42.2683 8.35726C41.7797 8.35726 41.3668 8.46777 41.0295 8.68878C40.6921 8.90979 40.4362 9.23549 40.2617 9.66588C40.0872 10.0846 40 10.6023 40 11.2188C40 11.7887 40.0814 12.2889 40.2443 12.7193C40.4071 13.1381 40.663 13.4638 41.012 13.6964C41.361 13.929 41.8146 14.0454 42.373 14.0454C42.8848 14.0454 43.3035 13.9465 43.6292 13.7488C43.9549 13.551 44.1759 13.3067 44.2923 13.0159H46.8571C46.7176 13.6557 46.4442 14.2257 46.0371 14.7258C45.63 15.226 45.1181 15.6157 44.5016 15.8949C43.8851 16.174 43.1756 16.3136 42.373 16.3136Z" fill="#F1F3FF"/>
<path d="M53.2261 16.1043C52.2607 16.1043 51.4813 15.9879 50.8881 15.7553C50.2948 15.511 49.8586 15.1097 49.5795 14.5514C49.3119 13.9814 49.1782 13.2137 49.1782 12.2482V3.83818H51.7779V12.3529C51.7779 12.8065 51.8943 13.1555 52.1269 13.3998C52.3712 13.6324 52.7143 13.7488 53.1564 13.7488H54.5697V16.1043H53.2261ZM47.73 8.46195V6.42051H54.5697V8.46195H47.73Z" fill="#F1F3FF"/>
<path d="M55.3303 15.9821L59.6749 9.19477L59.7098 9.49139L55.6967 3.24494H58.8374L61.315 7.22313H61.7163L64.1591 3.24494H67.2125L63.182 9.52629L63.1296 9.24712L67.6138 15.9821H64.4557L61.5593 11.4805H61.1405L58.3837 15.9821H55.3303Z" fill="#F1F3FF"/>
<defs>
<clipPath id="clip0_1709_1499">
<rect width="17.5463" height="19.0064" fill="white" transform="translate(0.451172 0.0842285)"/>
</clipPath>
</defs>
</svg>
