<svg width="32" height="32" viewBox="0 0 32 32" fill="none" xmlns="http://www.w3.org/2000/svg">
<g clip-path="url(#clip0_466_36332)">
<path d="M0 0H32V16H0V0Z" fill="#0038A8"/>
<path d="M0 16H32V32H0V16Z" fill="#CE1126"/>
<path d="M27.7125 16L0 32V0" fill="white"/>
<path d="M1.575 2.77502L2.5375 3.60627L3.65625 2.99377L3.15625 4.16252L4.09375 5.03752L2.8125 4.93127L2.275 6.08127L1.98125 4.84377L0.71875 4.68127L1.8125 4.02502L1.575 2.77502ZM23.2563 14.3125L23.2812 15.5813L24.4875 16L23.2812 16.4188L23.2563 17.6875L22.4875 16.675L21.2687 17.05L22 16L21.2687 14.9563L22.4875 15.325L23.2563 14.3125ZM2.28125 25.9188L2.81875 27.0688L4.0875 26.9625L3.1625 27.8375L3.65625 29.0063L2.5375 28.3938L1.575 29.225L1.81875 27.975L0.725 27.3188L1.9875 27.1563L2.28125 25.9188ZM9.93125 9.25002L9.51875 9.66252L9.71875 12.8063L9.5125 12.825L9.1375 9.95627L8.79375 10.2938L9.30625 12.8563C8.89498 12.9394 8.50417 13.103 8.15625 13.3375L6.7 11.1625H6.21875L7.98125 13.4625L7.825 13.5938L5.74375 11.2188H5.15625V11.8125L7.53125 13.8938L7.39375 14.05L5.09375 12.2875V12.7688L7.26875 14.225C7.03627 14.5734 6.87485 14.9642 6.79375 15.375L4.23125 14.8625L3.8875 15.2063L6.7625 15.5813L6.7375 15.7938L3.59375 15.5875L3.175 16L3.59375 16.4125L6.7375 16.2125L6.75625 16.4188L3.8875 16.7938L4.225 17.1375L6.7875 16.625C6.87066 17.0363 7.03421 17.4271 7.26875 17.775L5.09375 19.2313V19.7125L7.39375 17.95L7.525 18.1063L5.15 20.1875V20.775H5.75L7.83125 18.4L7.9875 18.5375L6.225 20.8375H6.70625L8.1625 18.6625C8.51075 18.8952 8.90159 19.0566 9.3125 19.1375L8.8 21.7L9.14375 22.0438L9.51875 19.1688L9.725 19.1938L9.525 22.3375L9.9375 22.7563L10.35 22.3375L10.15 19.1938L10.3562 19.175L10.7312 22.0438L11.075 21.7063L10.5625 19.1438C10.9738 19.0606 11.3646 18.8971 11.7125 18.6625L13.1687 20.8375H13.65L11.875 18.5375L12.0312 18.4063L14.1125 20.7813H14.7V20.1875L12.325 18.1063L12.4625 17.95L14.7625 19.7125V19.2313L12.5875 17.775C12.82 17.4267 12.9814 17.0359 13.0625 16.625L15.625 17.1375L15.9688 16.7938L13.0938 16.4188L13.1187 16.2125L16.2625 16.4125L16.6812 16L16.2625 15.5875L13.1187 15.7938C13.1187 15.7188 13.1063 15.65 13.1 15.5813L15.9688 15.2063L15.6313 14.8625L13.0688 15.375C12.9856 14.9638 12.822 14.5729 12.5875 14.225L14.7625 12.7688V12.2875L12.4625 14.05L12.3313 13.8938L14.7063 11.8125V11.225H14.1125L12.0312 13.6L11.875 13.4625L13.6375 11.1625H13.1562L11.7 13.3375C11.3517 13.105 10.9609 12.9436 10.55 12.8625L11.0625 10.3L10.7188 9.95627L10.3438 12.8313L10.1375 12.8063L10.3375 9.66252L9.93125 9.25002Z" fill="#FCD116"/>
</g>
<defs>
<clipPath id="clip0_466_36332">
<rect width="32" height="32" rx="16" fill="white"/>
</clipPath>
</defs>
</svg>
