<svg width="32" height="32" viewBox="0 0 32 32" fill="none" xmlns="http://www.w3.org/2000/svg">
<g clip-path="url(#clip0_466_36104)">
<path fill-rule="evenodd" clip-rule="evenodd" d="M0 0H60.8006V2.46156H0V0ZM0 4.92312H60.8006V7.38469H0V4.92312ZM0 9.84625H60.8006V12.3078H0V9.84625ZM0 14.7694H60.8006V17.2309H0V14.7694ZM0 19.6925H60.8006V22.1541H0V19.6925ZM0 24.6156H60.8006V27.0772H0V24.6156ZM0 29.5387H60.8006V32.0003H0V29.5387Z" fill="#BD3D44"/>
<path fill-rule="evenodd" clip-rule="evenodd" d="M0 2.46155H60.8006V4.92311H0V2.46155ZM0 7.38467H60.8006V9.84624H0V7.38467ZM0 12.3078H60.8006V14.7694H0V12.3078ZM0 17.2309H60.8006V19.6925H0V17.2309ZM0 22.154H60.8006V24.6156H0V22.154ZM0 27.0772H60.8006V29.5387H0V27.0772Z" fill="white"/>
<path fill-rule="evenodd" clip-rule="evenodd" d="M0 0H24.3202V17.2309H0V0Z" fill="#192F5D"/>
<path fill-rule="evenodd" clip-rule="evenodd" d="M2.01823 0.738525L2.26436 1.42771H2.95361L2.38742 1.84621L2.60898 2.51084L2.01823 2.09234L1.47667 2.51084L1.69823 1.84621L1.10742 1.42771H1.84598L2.01823 0.738525ZM6.0798 0.738525L6.30136 1.42771H7.01517L6.42442 1.84621L6.67055 2.51084L6.0798 2.09234L5.48905 2.51084L5.73517 1.84621L5.14442 1.42771H5.85823L6.0798 0.738525ZM10.1414 0.738525L10.3629 1.42771H11.0767L10.486 1.84621L10.7322 2.51084L10.1414 2.09234L9.55061 2.51084L9.79673 1.84621L9.20598 1.42771H9.91986L10.1414 0.738525ZM14.1784 0.738525L14.4245 1.42771H15.1137L14.5475 1.84621L14.7691 2.51084L14.1784 2.09234L13.6122 2.51084L13.8337 1.84621L13.2429 1.42771H13.9814L14.1784 0.738525ZM18.2399 0.738525L18.4614 1.42771H19.1753L18.5845 1.84621L18.8307 2.51084L18.2153 2.09234L17.6491 2.51084L17.8707 1.84621L17.2799 1.42771H17.9937L18.2399 0.738525ZM22.3015 0.738525L22.523 1.42771H23.2369L22.6461 1.84621L22.8922 2.51084L22.3015 2.09234L21.7107 2.51084L21.9569 1.84621L21.3661 1.42771H22.0799L22.3015 0.738525ZM4.0613 2.46159L4.28286 3.15084H4.99673L4.40592 3.56928L4.65211 4.2339L4.0613 3.81546L3.47055 4.2339L3.71667 3.56928L3.12592 3.15084H3.8398L4.0613 2.46159ZM8.0983 2.46159L8.34442 3.15084H9.03367L8.46748 3.56928L8.68905 4.2339L8.0983 3.81546L7.53211 4.2339L7.75367 3.56928L7.16286 3.15084H7.90136L8.0983 2.46159ZM12.1599 2.46159L12.3814 3.15084H13.0952L12.5045 3.56928L12.7506 4.2339L12.1599 3.81546L11.569 4.2339L11.8152 3.56928L11.2245 3.15084H11.9383L12.1599 2.46159ZM16.2214 2.46159L16.443 3.15084H17.1568L16.566 3.56928L16.8122 4.2339L16.2214 3.81546L15.6307 4.2339L15.8768 3.56928L15.286 3.15084H15.9999L16.2214 2.46159ZM20.2584 2.46159L20.5045 3.15084H21.1692L20.603 3.56928L20.8245 4.2339L20.2338 3.81546L19.6676 4.2339L19.8892 3.56928L19.2984 3.15084H20.0369L20.2584 2.46159ZM2.0428 4.18471L2.23973 4.8739H2.97823L2.38742 5.2924L2.60898 5.95703L2.01823 5.53853L1.47667 5.95703L1.69823 5.2924L1.10742 4.8739H1.84598L2.0428 4.18471ZM6.0798 4.18471L6.30136 4.8739H7.01517L6.44905 5.2924L6.67055 5.95703L6.0798 5.53853L5.51361 5.95703L5.73517 5.2924L5.14442 4.8739H5.85823L6.0798 4.18471ZM10.1414 4.18471L10.3629 4.8739H11.0767L10.486 5.2924L10.7322 5.95703L10.1414 5.53853L9.55061 5.95703L9.79673 5.2924L9.20598 4.8739H9.91986L10.1414 4.18471ZM14.1784 4.18471L14.4245 4.8739H15.1137L14.5475 5.2924L14.7691 5.95703L14.1784 5.53853L13.6122 5.95703L13.8337 5.2924L13.2429 4.8739H13.9814L14.1784 4.18471ZM18.2399 4.18471L18.4614 4.8739H19.1753L18.6092 5.2924L18.8307 5.95703L18.2399 5.53853L17.6737 5.95703L17.8953 5.2924L17.3045 4.8739H18.0184L18.2399 4.18471ZM22.3015 4.18471L22.523 4.8739H23.2369L22.6461 5.2924L22.8922 5.95703L22.3015 5.53853L21.7107 5.95703L21.9569 5.2924L21.3661 4.8739H22.0799L22.3015 4.18471ZM4.0613 5.90771L4.28286 6.59696H4.99673L4.40592 7.0154L4.65211 7.68003L4.0613 7.26159L3.47055 7.68003L3.71667 7.0154L3.12592 6.59696H3.8398L4.0613 5.90771ZM8.0983 5.90771L8.34442 6.59696H9.03367L8.46748 7.0154L8.68905 7.68003L8.0983 7.26159L7.53211 7.68003L7.75367 7.0154L7.16286 6.59696H7.90136L8.0983 5.90771ZM12.1599 5.90771L12.3814 6.59696H13.0952L12.5291 7.0154L12.7506 7.68003L12.1599 7.26159L11.5937 7.68003L11.8152 7.0154L11.2245 6.59696H11.9383L12.1599 5.90771ZM16.2214 5.90771L16.443 6.59696H17.1568L16.566 7.0154L16.8122 7.68009L16.2214 7.26165L15.6307 7.68009L15.8768 7.01546L15.286 6.59703H15.9999L16.2214 5.90771ZM20.2584 5.90771L20.5045 6.59696H21.1692L20.603 7.0154L20.8245 7.68003L20.2338 7.26159L19.6676 7.68003L19.8892 7.0154L19.2984 6.59696H20.0369L20.2584 5.90771ZM2.0428 7.63084L2.23973 8.32003H2.97823L2.38742 8.73853L2.60898 9.40315L2.01823 8.98465L1.47667 9.40315L1.69823 8.73853L1.10742 8.32003H1.84598L2.0428 7.63084ZM6.0798 7.63084L6.30136 8.32003H7.01517L6.44905 8.73853L6.67055 9.40315L6.0798 8.98465L5.51361 9.40315L5.73517 8.73853L5.14442 8.32003H5.85823L6.0798 7.63084ZM10.1414 7.63084L10.3629 8.32003H11.0767L10.486 8.73853L10.7322 9.40315L10.1414 8.98465L9.55061 9.40315L9.79673 8.73853L9.20598 8.32003H9.91986L10.1414 7.63084ZM14.1784 7.63084L14.4245 8.32003H15.1137L14.5475 8.73853L14.7691 9.40315L14.1784 8.98465L13.6122 9.40315L13.8337 8.73853L13.2429 8.32003H13.9814L14.1784 7.63084ZM18.2399 7.63084L18.4614 8.32003H19.1753L18.6092 8.73853L18.8307 9.40315L18.2399 8.98465L17.6737 9.40315L17.8953 8.73853L17.3045 8.32003H18.0184L18.2399 7.63084ZM22.3015 7.63084L22.523 8.32003H23.2369L22.6461 8.73853L22.8922 9.40315L22.3015 8.98465L21.7107 9.40315L21.9569 8.73853L21.3661 8.32003H22.0799L22.3015 7.63084ZM4.0613 9.3539L4.28286 10.0432H4.99673L4.40592 10.4616L4.65211 11.1262L4.0613 10.7078L3.47055 11.1262L3.71667 10.4616L3.12592 10.0432H3.8398L4.0613 9.3539ZM8.0983 9.3539L8.34442 10.0432H9.03367L8.46748 10.4616L8.68905 11.1262L8.0983 10.7078L7.53211 11.1262L7.75367 10.4616L7.16286 10.0432H7.90136L8.0983 9.3539ZM12.1599 9.3539L12.3814 10.0432H13.0952L12.5291 10.4616L12.7506 11.1262L12.1599 10.7078L11.5937 11.1262L11.8152 10.4616L11.2245 10.0432H11.9383L12.1599 9.3539ZM16.2214 9.3539L16.443 10.0432H17.1568L16.566 10.4616L16.8122 11.1263L16.2214 10.7078L15.6307 11.1263L15.8768 10.4617L15.286 10.0432H15.9999L16.2214 9.3539ZM20.2584 9.3539L20.5045 10.0432H21.1692L20.603 10.4616L20.8245 11.1262L20.2338 10.7078L19.6676 11.1262L19.8892 10.4616L19.2984 10.0432H20.0369L20.2584 9.3539ZM2.0428 11.077L2.23973 11.7662H2.97823L2.38742 12.1847L2.60898 12.8493L2.01823 12.4308L1.47667 12.8493L1.69823 12.1847L1.10742 11.7662H1.84598L2.0428 11.077ZM6.0798 11.077L6.30136 11.7662H7.01517L6.44905 12.1847L6.67055 12.8493L6.0798 12.4308L5.51361 12.8493L5.73517 12.1847L5.14442 11.7662H5.85823L6.0798 11.077ZM10.1414 11.077L10.3629 11.7662H11.0767L10.486 12.1847L10.7322 12.8493L10.1414 12.4308L9.55061 12.8493L9.79673 12.1847L9.20598 11.7662H9.91986L10.1414 11.077ZM14.1784 11.077L14.4245 11.7662H15.1137L14.5475 12.1847L14.7691 12.8493L14.1784 12.4308L13.6122 12.8493L13.8337 12.1847L13.2429 11.7662H13.9814L14.1784 11.077ZM18.2399 11.077L18.4614 11.7662H19.1753L18.6092 12.1847L18.8307 12.8493L18.2399 12.4308L17.6737 12.8493L17.8953 12.1847L17.3045 11.7662H18.0184L18.2399 11.077ZM22.3015 11.077L22.523 11.7662H23.2369L22.6461 12.1847L22.8922 12.8493L22.3015 12.4308L21.7107 12.8493L21.9569 12.1847L21.3661 11.7662H22.0799L22.3015 11.077ZM4.0613 12.8002L4.28286 13.4894H4.99673L4.40592 13.9078L4.65211 14.5725L4.0613 14.154L3.47055 14.5725L3.71667 13.9078L3.12592 13.4894H3.8398L4.0613 12.8002ZM8.0983 12.8002L8.34442 13.4894H9.03367L8.46748 13.9078L8.68905 14.5725L8.0983 14.154L7.53211 14.5725L7.75367 13.9078L7.16286 13.4894H7.90136L8.0983 12.8002ZM12.1599 12.8002L12.3814 13.4894H13.0952L12.5291 13.9078L12.7506 14.5725L12.1599 14.154L11.5937 14.5725L11.8152 13.9078L11.2245 13.4894H11.9383L12.1599 12.8002ZM16.2214 12.8002L16.443 13.4894H17.1568L16.566 13.9078L16.8122 14.5725L16.2214 14.1541L15.6307 14.5725L15.8768 13.9079L15.286 13.4895H15.9999L16.2214 12.8002ZM20.2584 12.8002L20.5045 13.4894H21.1692L20.603 13.9078L20.8245 14.5725L20.2338 14.154L19.6676 14.5725L19.8892 13.9078L19.2984 13.4894H20.0369L20.2584 12.8002ZM2.0428 14.5233L2.23973 15.2125H2.97823L2.38742 15.631L2.60898 16.2956L2.01823 15.8771L1.47667 16.2956L1.69823 15.631L1.10742 15.2125H1.84598L2.0428 14.5233ZM6.0798 14.5233L6.30136 15.2125H7.01517L6.44905 15.631L6.67055 16.2956L6.0798 15.8771L5.51361 16.2956L5.73517 15.631L5.14442 15.2125H5.85823L6.0798 14.5233ZM10.1414 14.5233L10.3629 15.2125H11.0767L10.486 15.631L10.7322 16.2956L10.1414 15.8771L9.55061 16.2956L9.79673 15.631L9.20598 15.2125H9.91986L10.1414 14.5233ZM14.1784 14.5233L14.4245 15.2125H15.1137L14.5475 15.631L14.7691 16.2956L14.1784 15.8771L13.6122 16.2956L13.8337 15.631L13.2429 15.2125H13.9814L14.1784 14.5233ZM18.2399 14.5233L18.4614 15.2125H19.1753L18.6092 15.631L18.8307 16.2956L18.2399 15.8771L17.6737 16.2956L17.8953 15.631L17.3045 15.2125H18.0184L18.2399 14.5233ZM22.3015 14.5233L22.523 15.2125H23.2369L22.6461 15.631L22.8922 16.2956L22.3015 15.8771L21.7107 16.2956L21.9569 15.631L21.3661 15.2125H22.0799L22.3015 14.5233Z" fill="white"/>
</g>
<defs>
<clipPath id="clip0_466_36104">
<rect width="32" height="32" rx="16" fill="white"/>
</clipPath>
</defs>
</svg>
