<svg width="32" height="32" viewBox="0 0 32 32" fill="none" xmlns="http://www.w3.org/2000/svg">
<g clip-path="url(#clip0_466_36111)">
<path d="M0 0H32V32H0V0Z" fill="#003399"/>
<path d="M16.0014 14.5698L15.5273 16.15L16.3175 16.308L16.0014 14.5698Z" fill="#FFCC00"/>
<path d="M16.0005 14.5698L16.4746 16.15L15.6845 16.308L16.0005 14.5698Z" fill="#FFCC00"/>
<path d="M17.5039 15.6617L15.8545 15.6991L15.9484 16.4994L17.5039 15.6617Z" fill="#FFCC00"/>
<path d="M17.5039 15.6617L16.1475 16.6009L15.753 15.8983L17.5039 15.6617Z" fill="#FFCC00"/>
<path d="M16.9309 17.4284L16.3856 15.8713L15.6535 16.2079L16.9309 17.4284Z" fill="#FFCC00"/>
<path d="M16.9304 17.4284L15.618 16.4286L16.1644 15.8364L16.9304 17.4284Z" fill="#FFCC00"/>
<path d="M14.498 15.6617L16.1474 15.6991L16.0536 16.4994L14.498 15.6617Z" fill="#FFCC00"/>
<path d="M14.4981 15.6617L15.8545 16.6009L16.2489 15.8983L14.4981 15.6617Z" fill="#FFCC00"/>
<path d="M15.071 17.4284L15.6163 15.8713L16.3485 16.2079L15.071 17.4284Z" fill="#FFCC00"/>
<path d="M15.0715 17.4284L16.3839 16.4286L15.8376 15.8364L15.0715 17.4284Z" fill="#FFCC00"/>
<path d="M16.0014 14.5698L15.5273 16.15L16.3175 16.308L16.0014 14.5698Z" fill="#FFCC00"/>
<path d="M16.0005 14.5698L16.4746 16.15L15.6845 16.308L16.0005 14.5698Z" fill="#FFCC00"/>
<path d="M17.5039 15.6617L15.8545 15.6991L15.9484 16.4994L17.5039 15.6617Z" fill="#FFCC00"/>
<path d="M17.5039 15.6617L16.1475 16.6009L15.753 15.8983L17.5039 15.6617Z" fill="#FFCC00"/>
<path d="M16.9309 17.4284L16.3856 15.8713L15.6535 16.2079L16.9309 17.4284Z" fill="#FFCC00"/>
<path d="M16.9304 17.4284L15.618 16.4286L16.1644 15.8364L16.9304 17.4284Z" fill="#FFCC00"/>
<path d="M14.498 15.6617L16.1474 15.6991L16.0536 16.4994L14.498 15.6617Z" fill="#FFCC00"/>
<path d="M14.4981 15.6617L15.8545 16.6009L16.2489 15.8983L14.4981 15.6617Z" fill="#FFCC00"/>
<path d="M15.071 17.4284L15.6163 15.8713L16.3485 16.2079L15.071 17.4284Z" fill="#FFCC00"/>
<path d="M15.0715 17.4284L16.3839 16.4286L15.8376 15.8364L15.0715 17.4284Z" fill="#FFCC00"/>
<path d="M16.0014 14.5698L15.5273 16.15L16.3175 16.308L16.0014 14.5698Z" fill="#FFCC00"/>
<path d="M16.0005 14.5698L16.4746 16.15L15.6845 16.308L16.0005 14.5698Z" fill="#FFCC00"/>
<path d="M17.5039 15.6617L15.8545 15.6991L15.9484 16.4994L17.5039 15.6617Z" fill="#FFCC00"/>
<path d="M17.5039 15.6617L16.1475 16.6009L15.753 15.8983L17.5039 15.6617Z" fill="#FFCC00"/>
<path d="M16.9309 17.4284L16.3856 15.8713L15.6535 16.2079L16.9309 17.4284Z" fill="#FFCC00"/>
<path d="M16.9304 17.4284L15.618 16.4286L16.1644 15.8364L16.9304 17.4284Z" fill="#FFCC00"/>
<path d="M14.498 15.6617L16.1474 15.6991L16.0536 16.4994L14.498 15.6617Z" fill="#FFCC00"/>
<path d="M14.4981 15.6617L15.8545 16.6009L16.2489 15.8983L14.4981 15.6617Z" fill="#FFCC00"/>
<path d="M15.071 17.4284L15.6163 15.8713L16.3485 16.2079L15.071 17.4284Z" fill="#FFCC00"/>
<path d="M15.0715 17.4284L16.3839 16.4286L15.8376 15.8364L15.0715 17.4284Z" fill="#FFCC00"/>
<path d="M10.4465 9.28885L11.7589 8.28906L11.2126 7.69679L10.4465 9.28885Z" fill="#FFCC00"/>
<path d="M10.446 9.28885L10.9913 7.73175L11.7235 8.06832L10.446 9.28885Z" fill="#FFCC00"/>
<path d="M9.87306 7.52209L11.2295 8.46128L11.6239 7.75866L9.87306 7.52209Z" fill="#FFCC00"/>
<path d="M9.87303 7.5221L11.5224 7.55955L11.4286 8.35984L9.87303 7.5221Z" fill="#FFCC00"/>
<path d="M11.3764 6.43018L10.9023 8.01042L11.6925 8.16845L11.3764 6.43018Z" fill="#FFCC00"/>
<path d="M11.3755 6.43018L11.8496 8.01042L11.0595 8.16845L11.3755 6.43018Z" fill="#FFCC00"/>
<path d="M12.3035 9.28891L10.9911 8.28912L11.5374 7.69685L12.3035 9.28891Z" fill="#FFCC00"/>
<path d="M12.304 9.28891L11.7587 7.73181L11.0265 8.06839L12.304 9.28891Z" fill="#FFCC00"/>
<path d="M12.8769 7.52209L11.5205 8.46128L11.1261 7.75866L12.8769 7.52209Z" fill="#FFCC00"/>
<path d="M12.877 7.5221L11.2276 7.55955L11.3214 8.35984L12.877 7.5221Z" fill="#FFCC00"/>
<path d="M8.79029 12.804L8.24498 11.2469L7.51287 11.5835L8.79029 12.804Z" fill="#FFCC00"/>
<path d="M8.78978 12.804L7.4774 11.8043L8.02374 11.212L8.78978 12.804Z" fill="#FFCC00"/>
<path d="M6.93287 12.804L8.24525 11.8043L7.69891 11.212L6.93287 12.804Z" fill="#FFCC00"/>
<path d="M6.93236 12.804L7.47767 11.2469L8.20978 11.5835L6.93236 12.804Z" fill="#FFCC00"/>
<path d="M6.35939 11.0372L7.71579 11.9764L8.11025 11.2738L6.35939 11.0372Z" fill="#FFCC00"/>
<path d="M6.35936 11.0372L8.00876 11.0747L7.91489 11.875L6.35936 11.0372Z" fill="#FFCC00"/>
<path d="M9.36522 11.0372L8.00881 11.9764L7.61436 11.2738L9.36522 11.0372Z" fill="#FFCC00"/>
<path d="M9.36525 11.0372L7.71585 11.0747L7.80972 11.875L9.36525 11.0372Z" fill="#FFCC00"/>
<path d="M7.86186 9.94531L8.33594 11.5256L7.54581 11.6836L7.86186 9.94531Z" fill="#FFCC00"/>
<path d="M7.86275 9.94531L7.38867 11.5256L8.1788 11.6836L7.86275 9.94531Z" fill="#FFCC00"/>
<path d="M9.36525 20.5415L7.71585 20.579L7.80972 21.3792L9.36525 20.5415Z" fill="#FFCC00"/>
<path d="M9.36522 20.5415L8.00881 21.4807L7.61436 20.7781L9.36522 20.5415Z" fill="#FFCC00"/>
<path d="M8.79029 22.3083L8.24498 20.7512L7.51287 21.0877L8.79029 22.3083Z" fill="#FFCC00"/>
<path d="M8.78978 22.3083L7.4774 21.3085L8.02374 20.7162L8.78978 22.3083Z" fill="#FFCC00"/>
<path d="M6.93287 22.3083L8.24525 21.3085L7.69891 20.7162L6.93287 22.3083Z" fill="#FFCC00"/>
<path d="M6.93236 22.3083L7.47767 20.7512L8.20978 21.0877L6.93236 22.3083Z" fill="#FFCC00"/>
<path d="M7.86186 19.4496L8.33594 21.0298L7.54581 21.1879L7.86186 19.4496Z" fill="#FFCC00"/>
<path d="M7.86275 19.4496L7.38867 21.0298L8.1788 21.1879L7.86275 19.4496Z" fill="#FFCC00"/>
<path d="M6.35936 20.5415L8.00876 20.579L7.91489 21.3792L6.35936 20.5415Z" fill="#FFCC00"/>
<path d="M6.35939 20.5415L7.71579 21.4807L8.11025 20.7781L6.35939 20.5415Z" fill="#FFCC00"/>
<path d="M12.7949 23.7222L11.1455 23.7596L11.2394 24.5599L12.7949 23.7222Z" fill="#FFCC00"/>
<path d="M12.7949 23.7222L11.4385 24.6614L11.044 23.9587L12.7949 23.7222Z" fill="#FFCC00"/>
<path d="M12.22 25.4889L11.6747 23.9318L10.9426 24.2684L12.22 25.4889Z" fill="#FFCC00"/>
<path d="M12.2195 25.4889L10.9071 24.4891L11.4534 23.8969L12.2195 25.4889Z" fill="#FFCC00"/>
<path d="M10.3626 25.4889L11.6749 24.4891L11.1286 23.8969L10.3626 25.4889Z" fill="#FFCC00"/>
<path d="M10.362 25.4889L10.9074 23.9318L11.6395 24.2684L10.362 25.4889Z" fill="#FFCC00"/>
<path d="M11.2916 22.6302L11.7656 24.2105L10.9755 24.3685L11.2916 22.6302Z" fill="#FFCC00"/>
<path d="M11.2924 22.6302L10.8184 24.2105L11.6085 24.3685L11.2924 22.6302Z" fill="#FFCC00"/>
<path d="M9.78905 23.7222L11.4385 23.7596L11.3446 24.5599L9.78905 23.7222Z" fill="#FFCC00"/>
<path d="M9.78908 23.7222L11.1455 24.6614L11.5399 23.9587L9.78908 23.7222Z" fill="#FFCC00"/>
<path d="M16.0005 14.5698L16.4746 16.15L15.6845 16.308L16.0005 14.5698Z" fill="#FFCC00"/>
<path d="M16.0014 14.5698L15.5273 16.15L16.3175 16.308L16.0014 14.5698Z" fill="#FFCC00"/>
<path d="M14.498 15.6617L16.1474 15.6991L16.0536 16.4994L14.498 15.6617Z" fill="#FFCC00"/>
<path d="M14.4981 15.6617L15.8545 16.6009L16.2489 15.8983L14.4981 15.6617Z" fill="#FFCC00"/>
<path d="M15.071 17.4284L15.6163 15.8713L16.3485 16.2079L15.071 17.4284Z" fill="#FFCC00"/>
<path d="M15.0715 17.4284L16.3839 16.4286L15.8376 15.8364L15.0715 17.4284Z" fill="#FFCC00"/>
<path d="M17.5039 15.6617L15.8545 15.6991L15.9484 16.4994L17.5039 15.6617Z" fill="#FFCC00"/>
<path d="M17.5039 15.6617L16.1475 16.6009L15.753 15.8983L17.5039 15.6617Z" fill="#FFCC00"/>
<path d="M16.9309 17.4284L16.3856 15.8713L15.6535 16.2079L16.9309 17.4284Z" fill="#FFCC00"/>
<path d="M16.9304 17.4284L15.618 16.4286L16.1644 15.8364L16.9304 17.4284Z" fill="#FFCC00"/>
<path d="M21.5554 9.28885L20.243 8.28906L20.7894 7.69679L21.5554 9.28885Z" fill="#FFCC00"/>
<path d="M21.5559 9.28885L21.0106 7.73175L20.2785 8.06832L21.5559 9.28885Z" fill="#FFCC00"/>
<path d="M22.1289 7.52209L20.7725 8.46128L20.378 7.75866L22.1289 7.52209Z" fill="#FFCC00"/>
<path d="M22.1289 7.5221L20.4795 7.55955L20.5734 8.35984L22.1289 7.5221Z" fill="#FFCC00"/>
<path d="M20.6255 6.43018L21.0996 8.01042L20.3095 8.16845L20.6255 6.43018Z" fill="#FFCC00"/>
<path d="M20.6264 6.43018L20.1523 8.01042L20.9425 8.16845L20.6264 6.43018Z" fill="#FFCC00"/>
<path d="M19.6985 9.28891L21.0109 8.28912L20.4645 7.69685L19.6985 9.28891Z" fill="#FFCC00"/>
<path d="M19.698 9.28891L20.2433 7.73181L20.9754 8.06839L19.698 9.28891Z" fill="#FFCC00"/>
<path d="M19.125 7.52209L20.4814 8.46128L20.8759 7.75866L19.125 7.52209Z" fill="#FFCC00"/>
<path d="M19.125 7.5221L20.7744 7.55955L20.6805 8.35984L19.125 7.5221Z" fill="#FFCC00"/>
<path d="M23.2117 12.804L23.757 11.2469L24.4891 11.5835L23.2117 12.804Z" fill="#FFCC00"/>
<path d="M23.2122 12.804L24.5245 11.8043L23.9782 11.212L23.2122 12.804Z" fill="#FFCC00"/>
<path d="M25.0691 12.804L23.7567 11.8043L24.303 11.212L25.0691 12.804Z" fill="#FFCC00"/>
<path d="M25.0696 12.804L24.5243 11.2469L23.7922 11.5835L25.0696 12.804Z" fill="#FFCC00"/>
<path d="M25.6426 11.0372L24.2862 11.9764L23.8917 11.2738L25.6426 11.0372Z" fill="#FFCC00"/>
<path d="M25.6426 11.0372L23.9932 11.0747L24.0871 11.875L25.6426 11.0372Z" fill="#FFCC00"/>
<path d="M22.6367 11.0372L23.9931 11.9764L24.3876 11.2738L22.6367 11.0372Z" fill="#FFCC00"/>
<path d="M22.6367 11.0372L24.2861 11.0747L24.1922 11.875L22.6367 11.0372Z" fill="#FFCC00"/>
<path d="M24.1401 9.94531L23.666 11.5256L24.4561 11.6836L24.1401 9.94531Z" fill="#FFCC00"/>
<path d="M24.1392 9.94531L24.6133 11.5256L23.8232 11.6836L24.1392 9.94531Z" fill="#FFCC00"/>
<path d="M22.6367 20.5415L24.2861 20.579L24.1922 21.3792L22.6367 20.5415Z" fill="#FFCC00"/>
<path d="M22.6367 20.5415L23.9931 21.4807L24.3876 20.7781L22.6367 20.5415Z" fill="#FFCC00"/>
<path d="M23.2117 22.3083L23.757 20.7512L24.4891 21.0877L23.2117 22.3083Z" fill="#FFCC00"/>
<path d="M23.2122 22.3083L24.5245 21.3085L23.9782 20.7162L23.2122 22.3083Z" fill="#FFCC00"/>
<path d="M25.0691 22.3083L23.7567 21.3085L24.303 20.7162L25.0691 22.3083Z" fill="#FFCC00"/>
<path d="M25.0696 22.3083L24.5243 20.7512L23.7922 21.0877L25.0696 22.3083Z" fill="#FFCC00"/>
<path d="M24.1401 19.4496L23.666 21.0298L24.4561 21.1879L24.1401 19.4496Z" fill="#FFCC00"/>
<path d="M24.1392 19.4496L24.6133 21.0298L23.8232 21.1879L24.1392 19.4496Z" fill="#FFCC00"/>
<path d="M25.6426 20.5415L23.9932 20.579L24.0871 21.3792L25.6426 20.5415Z" fill="#FFCC00"/>
<path d="M25.6426 20.5415L24.2862 21.4807L23.8917 20.7781L25.6426 20.5415Z" fill="#FFCC00"/>
<path d="M19.207 23.7222L20.8564 23.7596L20.7625 24.5599L19.207 23.7222Z" fill="#FFCC00"/>
<path d="M19.207 23.7222L20.5635 24.6614L20.9579 23.9587L19.207 23.7222Z" fill="#FFCC00"/>
<path d="M19.782 25.4889L20.3273 23.9318L21.0594 24.2684L19.782 25.4889Z" fill="#FFCC00"/>
<path d="M19.7825 25.4889L21.0949 24.4891L20.5485 23.8969L19.7825 25.4889Z" fill="#FFCC00"/>
<path d="M21.6394 25.4889L20.327 24.4891L20.8734 23.8969L21.6394 25.4889Z" fill="#FFCC00"/>
<path d="M21.6399 25.4889L21.0946 23.9318L20.3625 24.2684L21.6399 25.4889Z" fill="#FFCC00"/>
<path d="M20.7104 22.6302L20.2363 24.2105L21.0265 24.3685L20.7104 22.6302Z" fill="#FFCC00"/>
<path d="M20.7095 22.6302L21.1836 24.2105L20.3935 24.3685L20.7095 22.6302Z" fill="#FFCC00"/>
<path d="M22.2129 23.7222L20.5635 23.7596L20.6574 24.5599L22.2129 23.7222Z" fill="#FFCC00"/>
<path d="M22.2129 23.7222L20.8565 24.6614L20.462 23.9587L22.2129 23.7222Z" fill="#FFCC00"/>
</g>
<defs>
<clipPath id="clip0_466_36111">
<rect width="32" height="32" rx="16" fill="white"/>
</clipPath>
</defs>
</svg>
